<?xml version="1.0" encoding="iso-8859-1"?>
<!-- Generator: Adobe Illustrator 18.0.0, SVG Export Plug-In . SVG Version: 6.00 Build 0)  -->
<!DOCTYPE svg PUBLIC "-//W3C//DTD SVG 1.1//EN" "http://www.w3.org/Graphics/SVG/1.1/DTD/svg11.dtd">
<svg version="1.1" id="Capa_1" xmlns="http://www.w3.org/2000/svg" xmlns:xlink="http://www.w3.org/1999/xlink" x="0px" y="0px"
	 viewBox="0 0 297 297" style="enable-background:new 0 0 297 297;" xml:space="preserve">
<path d="M291.568,71.066c-3.357-4.077-7.862-6.867-12.917-8.051c-0.197-5.028-1.977-10.035-5.417-14.21
	c-4.052-4.919-9.774-7.964-16.114-8.573c-6.337-0.607-12.534,1.29-17.446,5.344c-7.557,6.238-10.286,16.195-7.722,25.061
	l-25.104,20.72c-2.06-0.231-4.257-0.368-6.624-0.376c-22.895-15.419-49.842-24.097-75.643-24.097
	c-61.072,0-110.759,49.687-110.759,110.759c0,27.425,10.112,47.707,30.065,60.379H9.43c-5.207,0-9.43,4.222-9.43,9.43
	c0,5.207,4.223,9.429,9.43,9.429h264.485c5.207,0,9.429-4.222,9.429-9.429c0-5.208-4.222-9.43-9.429-9.43h-59.191
	c24.566-12.904,37.505-33.649,37.505-60.379c0-17.224-5.176-34.071-14.955-49.476c0.002-0.029,0.004-0.057,0.006-0.085l24.99-20.624
	c2.652,1.363,5.565,2.225,8.623,2.518c6.342,0.612,12.536-1.289,17.438-5.339C298.477,96.273,299.929,81.211,291.568,71.066z
	 M200.019,109.834c7.675,0,13.337,1.743,15.944,4.91c4.222,5.125,3.132,17.068-2.846,31.168
	c-5.775,13.626-15.629,27.948-23.96,34.825c-6.041,4.983-13.668,7.728-21.477,7.728c-10.144,0-19.657-4.488-26.103-12.313
	c-11.857-14.398-9.802-35.772,4.581-47.645C156.86,119.674,181.611,109.834,200.019,109.834z M233.37,177.643
	c0,38.568-36.602,58.123-108.788,58.123c-65.275,0-91.9-16.84-91.9-58.123c0-50.674,41.227-91.9,91.9-91.9
	c14.969,0,30.821,3.655,45.684,10.23c-14.598,4.499-28.126,11.399-36.111,17.989c-22.394,18.486-25.594,51.763-7.132,74.179
	c10.039,12.19,24.858,19.183,40.658,19.183c12.177,0,24.065-4.275,33.48-12.041c9.09-7.504,20.825-22.981,28.451-39.882
	C232.087,162.671,233.37,170.132,233.37,177.643z M276.327,90.092c-1.021,0.844-2.314,1.242-3.63,1.112
	c-1.321-0.127-2.515-0.762-3.358-1.789c-1.591-1.933-3.886-3.153-6.376-3.394c-2.497-0.239-4.977,0.521-6.907,2.113l-22.718,18.748
	c-0.809-1.438-1.74-2.82-2.818-4.129c-0.956-1.162-2.137-2.37-3.55-3.553l22.755-18.782c4.013-3.313,4.584-9.25,1.274-13.267
	c-1.75-2.124-1.446-5.279,0.681-7.033c1.024-0.848,2.318-1.239,3.636-1.116c1.321,0.127,2.516,0.764,3.364,1.793
	c1.752,2.127,1.451,5.28-0.671,7.03c-2.261,1.863-3.43,4.559-3.432,7.276c-0.002,2.113,0.704,4.239,2.153,5.997
	c3.313,4.019,9.256,4.59,13.273,1.279c1.026-0.847,2.317-1.249,3.645-1.116c1.322,0.127,2.516,0.763,3.363,1.792
	C278.763,85.18,278.46,88.334,276.327,90.092z"/>
<g>
</g>
<g>
</g>
<g>
</g>
<g>
</g>
<g>
</g>
<g>
</g>
<g>
</g>
<g>
</g>
<g>
</g>
<g>
</g>
<g>
</g>
<g>
</g>
<g>
</g>
<g>
</g>
<g>
</g>
</svg>
