<?xml version="1.0" encoding="iso-8859-1"?>
<!-- Generator: Adobe Illustrator 19.0.0, SVG Export Plug-In . SVG Version: 6.00 Build 0)  -->
<svg version="1.1" id="Layer_1" xmlns="http://www.w3.org/2000/svg" xmlns:xlink="http://www.w3.org/1999/xlink" x="0px" y="0px"
	 viewBox="0 0 512 512" style="enable-background:new 0 0 512 512;" xml:space="preserve">
<g>
	<g>
		<path d="M428.277,185.322c-6.291-7.663-14.534-13.181-23.706-16.067c5.154-40.093-5.377-79.849-29.981-111.362
			C347.021,22.583,303.712,0,256,0c-46.637,0-89.847,21.087-118.552,57.854c-24.624,31.539-35.169,71.308-30.019,111.402
			c-9.17,2.886-17.415,8.404-23.706,16.067c-9.553,11.636-13.339,26.835-10.387,41.702c4.335,21.84,23.87,40.105,52.168,40.105
			l47.357,231.52c1.589,7.77,8.426,13.35,16.356,13.35h133.565c7.932,0,14.768-5.58,16.356-13.35l47.357-231.52
			c28.25,0,47.826-18.236,52.168-40.105C441.616,212.158,437.829,196.959,428.277,185.322z M309.157,478.609H202.843L159.587,267.13
			h29.63c9.206,0,16.696,7.49,16.696,16.696c0,27.69,22.563,50.079,50.134,50.079c28.886-0.004,50.04-23.977,50.04-51.543
			c0-8.399,6.833-15.232,15.232-15.232h31.095L309.157,478.609z M405.913,220.522c-1.496,7.535-9.154,13.217-17.811,13.217
			c-4.825,0-57.075,0-66.783,0c-26.811,0-48.623,21.812-48.623,48.623c0,8.657-5.681,16.315-13.216,17.81
			c-10.871,2.159-20.175-6.213-20.175-16.346c0-27.618-22.469-50.087-50.087-50.087c-14.074,0-63.42,0-65.319,0
			c-15.606,0-23.412-16.216-14.367-27.228c5.721-6.97,12.819-6.163,17.578-6.163h28.717c9.22,0,16.696-7.475,16.696-16.696
			c0-9.22-7.475-16.696-16.696-16.696H140.8c-4.763-32.183,3.194-63.229,22.968-88.555c22.333-28.604,55.951-45.01,92.232-45.01
			c35.752,0,70.246,16.841,92.271,45.052c19.752,25.298,27.697,56.331,22.93,88.514h-15.027c-9.22,0-16.696,7.475-16.696,16.696
			c0,9.22,7.475,16.696,16.696,16.696c12.776,0,21.796,0,33.391,0C399.696,200.348,408.072,209.65,405.913,220.522z"/>
	</g>
</g>
<g>
	<g>
		<circle cx="222.609" cy="150.261" r="16.696"/>
	</g>
</g>
<g>
	<g>
		<circle cx="289.391" cy="183.652" r="16.696"/>
	</g>
</g>
<g>
	<g>
		<circle cx="322.783" cy="116.87" r="16.696"/>
	</g>
</g>
<g>
	<g>
		<circle cx="256" cy="83.478" r="16.696"/>
	</g>
</g>
<g>
</g>
<g>
</g>
<g>
</g>
<g>
</g>
<g>
</g>
<g>
</g>
<g>
</g>
<g>
</g>
<g>
</g>
<g>
</g>
<g>
</g>
<g>
</g>
<g>
</g>
<g>
</g>
<g>
</g>
</svg>
