<svg id="Layer_1" height="512" viewBox="0 0 512 512" width="512" xmlns="http://www.w3.org/2000/svg" data-name="Layer 1"><path d="m499.492 178.709h-.1a6 6 0 0 0 -5.6 4.1c-4.864 14.588-26.952 22.16-46 24.382a1.326 1.326 0 0 1 -1-.266c-34.137-27.852-76.585-24.3-130.324-19.8-19.23 1.609-41.026 3.434-64.37 3.941-34.561.756-62.628-13.953-83.424-43.7a149.709 149.709 0 0 1 -21.4-46.254c-.014-.062-.029-.123-.045-.184-5.339-20.411-18.7-30.507-28.962-35.382a.86.86 0 0 1 -.506-.67 1.086 1.086 0 0 1 .31-.971c14.948-15.231 40.149-14.905 53.846-13.365a6 6 0 0 0 4.07-10.908c-17.887-12.286-35.064-16.821-51.047-13.481-16.126 3.372-30.284 14.578-42.09 33.311-18.769 1.538-27.376 13.195-32.228 21.873a38.947 38.947 0 0 1 -12.285 13.147 55.115 55.115 0 0 0 -18.054 21.026 15.043 15.043 0 0 1 -5.042 5.836c-9.854 6.6-12.558 15.949-8.264 28.575 3.5 10.287 12.444 14.652 23.938 11.68a15.213 15.213 0 0 1 11.756 1.845 27.985 27.985 0 0 1 8.41 8.185 9.812 9.812 0 0 0 7.3 4.3 9.653 9.653 0 0 0 7.813-2.912 30.044 30.044 0 0 0 8.028-14.8c1.079.048 2.241.056 3.451 0 .413 2.029.927 4.092 1.575 6.2a13.49 13.49 0 0 0 12.888 9.548c.419 0 .838-.029 1.255-.068 4.9 5.45 16.9 21.888 14.794 50.4-4.36 59.05 25.1 99.174 34.237 110.065 4.187 4.992 6.913 11.436 8.579 20.278.276 1.466.511 3 .737 4.493.622 4.083 1.211 7.949 2.717 10.976.784 3.511-.125 20.893-3.925 45.355-4.363 28.094-8.873 41.9-10.916 44.514l-7.681 7.784c-.094.1-.184.192-.271.292a7.571 7.571 0 0 0 5.081 12.492l.17.012 28 1.61q.5.037.982.038a12.207 12.207 0 0 0 11.9-9.369l.389-1.593 16.029 1.115c.364.032.725.047 1.084.047a12.207 12.207 0 0 0 11.9-9.37l3.055-12.526a.265.265 0 0 1 .058-.113l7.455-8.874c2.994-3.563 3.162-6.784 2.775-8.859-6.492-34.784-5.1-66.963 4.111-95.755a293.318 293.318 0 0 0 83.139 12.031c6.52 0 12.562-.22 18.04-.569 24.549-1.567 42.027-5.836 49.133-7.838 23.117 22.3 23.107 33.2 23.08 52.442a183.375 183.375 0 0 0 1.947 30.9c1.45 9.242-7.371 19.931-15.752 29.226a9.7 9.7 0 0 0 2.278 14.846 33.776 33.776 0 0 0 13.468 4.476c-.677 1.421-1.331 2.9-1.951 4.453a6 6 0 0 0 5.287 8.219l38.287 1.81a12.116 12.116 0 0 0 10.97-17.22l-2.557-5.5.071-.158 4.428-1.372a12.073 12.073 0 0 0 8.481-10.5l5.887-66.1a56.36 56.36 0 0 0 -6.28-31.32l-.6-1.14a61.7 61.7 0 0 1 -4.457-45.835c5.63-19.8 4.61-40.386 3.5-50.9a1.313 1.313 0 0 1 .669-1.291c16.492-8.8 37.44-24.164 43.58-47.382 3.821-14.449-.017-25.117-.182-25.564a6 6 0 0 0 -5.625-3.914zm-290.939 255.117-7.431 8.845a12.35 12.35 0 0 0 -2.528 4.988l-3.055 12.526c-.033.135-.161.224-.393.2l-13.608-.948 6.827-8.126a12.31 12.31 0 0 0 2.875-7.625c.014-.661.025-1.7.039-3.067.665-64.563 7.844-91.683 13.75-103.065a42.022 42.022 0 0 0 2.1-4.842c.18-.485.335-.958.508-1.44 1.87.684 3.731 1.337 5.586 1.972-9.738 30.417-11.312 64.211-4.67 100.582zm193.985 26.774a21.7 21.7 0 0 1 -7.385-1.7c9.574-10.846 18.812-23.365 16.691-36.879a173.13 173.13 0 0 1 -1.8-29.029c.021-14.721.022-26.578-10.163-41.851 8.007 3.376 15.959 7.488 18.961 12.932 6.435 11.67 5.411 25.007 4.421 37.9-.809 10.54-1.574 20.5 1.527 29.525 2 5.813-.306 9.007-7.946 17.374a128.246 128.246 0 0 0 -9.978 11.941zm53.534-215.613a13.246 13.246 0 0 0 -6.954 13.138c.82 7.77 2.158 27.839-3.109 46.357a73.648 73.648 0 0 0 5.38 54.707l.6 1.14a44.387 44.387 0 0 1 4.945 24.671l-5.887 66.1a.115.115 0 0 1 -.081.1l-4.427 1.372a12.115 12.115 0 0 0 -7.4 16.676l2.575 5.552a.159.159 0 0 1 -.129.115l-28.656-1.366c3.927-6.885 8.561-11.961 12.776-16.577 7.33-8.027 14.91-16.327 10.434-29.362-2.295-6.685-1.623-15.44-.911-24.71 1.073-13.972 2.288-29.808-5.878-44.618-6-10.881-19.933-16.355-32.225-21.185-2.909-1.143-5.656-2.222-8.026-3.28-21.811-9.729-33.011-28.026-33.287-54.382a119.216 119.216 0 0 1 6.6-38.7 6 6 0 1 0 -11.205-4.294 129.481 129.481 0 0 0 -7.394 42.766c.153 21.637 6.922 39.168 19.793 51.785-23.916 5.347-83.828 14.069-152.362-11.167 5.346-20 4.712-37.071-1.951-50.86-6.215-12.861-15.373-17.79-16.4-18.309a6 6 0 1 0 -5.432 10.7c.281.143 27.8 14.829 8.412 67.2a30.671 30.671 0 0 1 -1.5 3.48c-9.465 18.241-14.544 54.735-15.1 108.467-.013 1.306-.024 2.3-.037 2.928a.27.27 0 0 1 -.065.169l-7.457 8.876a12.353 12.353 0 0 0 -2.527 4.986l-3.056 12.528a.271.271 0 0 1 -.3.211c-.056 0-.113-.009-.17-.012l-18.246-1.049.905-.918c.093-.094.183-.192.27-.292 6.454-7.471 11.581-36.062 14.062-52.44 1.689-11.146 2.967-22.1 3.6-30.856 1.048-14.53.012-17.853-1.041-19.827-.675-1.264-1.2-4.713-1.621-7.483-.243-1.591-.493-3.237-.809-4.909-2.062-10.947-5.614-19.134-11.176-25.767-8.4-10.015-35.492-46.931-31.465-101.47 2.146-29.063-8.526-47.636-15.457-56.455 12.326-8.582 19.972-23.075 22.232-42.456a115.143 115.143 0 0 0 -.8-31.256 6 6 0 0 0 -11.8 2.2c.094.5 8.97 50.457-21.594 64.61a1.4 1.4 0 0 1 -1.185.01 1.522 1.522 0 0 1 -.839-.96c-6.111-19.82.975-35.725 8-45.577a24.107 24.107 0 0 0 2.262-23.8 6 6 0 0 0 -10.943 4.925 12.066 12.066 0 0 1 -1.092 11.915c-5.284 7.415-12.586 20.782-12.518 37.913a31.051 31.051 0 0 1 -6.317-.591 6 6 0 0 0 -7.337 6.174 16.307 16.307 0 0 1 -3.424 10.766 39.377 39.377 0 0 0 -10.347-9.349 27.254 27.254 0 0 0 -21.084-3.263c-7.572 1.957-8.872-1.871-9.571-3.926-3.161-9.3-.248-12.176 3.582-14.742a27.041 27.041 0 0 0 9.112-10.472 43.089 43.089 0 0 1 14.074-16.444 50.816 50.816 0 0 0 16-17.207c4.293-7.676 10.077-14.9 23.229-15.808a10.716 10.716 0 0 0 8.35-5c3.757-6.036 15.19-24.4 34.722-28.486a41.492 41.492 0 0 1 19 .673c-18.543 2.406-30.021 9.928-36.88 16.928a13.131 13.131 0 0 0 -3.559 11.473 12.934 12.934 0 0 0 7.173 9.411c7.949 3.776 18.3 11.611 22.479 27.5a159.474 159.474 0 0 0 23 50.019c22.389 32.226 53.828 49.194 91.064 49.192.891 0 1.792-.009 2.69-.029 23.714-.515 45.706-2.356 65.109-3.979 53.037-4.438 91.357-7.645 121.738 17.142a13.386 13.386 0 0 0 9.972 2.887c10.443-1.218 31.6-5.069 45.212-16.846-2.193 11.639-10.775 28.019-38.321 42.718z"/></svg>