<?xml version="1.0" encoding="iso-8859-1"?>
<!-- Generator: Adobe Illustrator 19.0.0, SVG Export Plug-In . SVG Version: 6.00 Build 0)  -->
<svg version="1.1" id="Capa_1" xmlns="http://www.w3.org/2000/svg" xmlns:xlink="http://www.w3.org/1999/xlink" x="0px" y="0px"
	 viewBox="0 0 55.961 55.961" style="enable-background:new 0 0 55.961 55.961;" xml:space="preserve">
<g>
	<path d="M55.961,21.985c0-3.523-2.242-6.447-5.149-6.93c0.1-0.52,0.149-1.044,0.149-1.57c0-4.687-3.813-8.5-8.5-8.5
		c-2.106,0-4.099,0.769-5.643,2.146c-1.422-1.924-4.003-3.146-6.857-3.146c-2.716,0-5.168,1.086-6.628,2.855
		c-1.213-1.168-2.968-1.855-4.872-1.855c-2.292,0-4.396,1.031-5.556,2.649c-0.918-0.427-1.919-0.649-2.944-0.649
		c-3.859,0-7,3.14-7,7c0,1.172,0.206,2.27,0.578,3.23c-1.791,2.553-6.8,11.027-0.321,18.231c0.026,0.029,0.054,0.057,0.084,0.083
		c0.114,0.1,2.594,2.236,5.846,2.296c0.315,1.222,1.044,2.344,2.092,3.194c0.238,0.233,0.494,0.44,0.758,0.634
		c-0.128,1.881-0.018,5.383,2.146,7.799c1.487,1.659,3.648,2.503,6.423,2.512c0.083,0.006,0.22,0.014,0.4,0.014
		c1.533,0,6.193-0.568,7.655-7.079c1.734-0.234,3.316-0.979,4.474-2.127c0.644,0.401,1.354,0.705,2.103,0.91
		c0.822,3.456,3.632,5.803,7.234,5.991c0.14,0.007,0.279,0.011,0.421,0.011c3.059,0,6.567-1.715,7.849-5.669
		c0.701-2.162,1.102-4.685,1.213-7.488c1.272-1.224,2.045-2.809,2.045-4.542c0-1.342-0.459-2.631-1.313-3.741
		C54.634,27.081,55.961,24.678,55.961,21.985z M10.53,31.832c-0.111,0.148-0.223,0.294-0.321,0.451
		c-0.078,0.125-0.144,0.255-0.214,0.385c-0.086,0.159-0.174,0.317-0.247,0.482c-0.061,0.136-0.11,0.276-0.161,0.415
		c-0.063,0.169-0.125,0.337-0.175,0.511c-0.041,0.144-0.072,0.29-0.104,0.437c-0.039,0.177-0.075,0.354-0.1,0.535
		c-0.021,0.15-0.032,0.3-0.043,0.452c-0.008,0.11-0.028,0.217-0.031,0.328c-2.297-0.065-4.185-1.534-4.474-1.771
		c-5.467-6.146-1.174-13.362,0.615-15.834c0.04,0.017,0.087,0.034,0.13,0.052c0.072,0.029,0.141,0.057,0.219,0.087
		c0.048,0.018,0.101,0.037,0.151,0.056c0.092,0.034,0.184,0.068,0.283,0.102c0.043,0.015,0.09,0.029,0.134,0.044
		c0.111,0.037,0.223,0.074,0.34,0.11c0.041,0.012,0.085,0.024,0.126,0.036c0.124,0.036,0.248,0.072,0.377,0.104
		c0.046,0.012,0.094,0.021,0.141,0.032c0.127,0.03,0.254,0.06,0.383,0.086c0.06,0.012,0.122,0.02,0.183,0.03
		c0.118,0.02,0.236,0.042,0.355,0.057c0.09,0.012,0.18,0.016,0.27,0.024c0.091,0.008,0.182,0.02,0.273,0.024
		c0.181,0.008,0.361,0.009,0.539-0.001c0.015,0.059,0.028,0.115,0.041,0.166c0.078,0.323,0.161,0.66,0.248,0.927
		c0.098,0.302,0.225,0.585,0.372,0.854c0.056,0.103,0.127,0.195,0.19,0.293c0.101,0.158,0.202,0.316,0.319,0.459
		c0.086,0.106,0.183,0.201,0.278,0.3c0.117,0.121,0.234,0.24,0.362,0.348c0.104,0.089,0.214,0.17,0.326,0.25
		c0.142,0.102,0.289,0.196,0.441,0.282c0.068,0.039,0.126,0.09,0.196,0.125c0.063,0.032,0.129,0.052,0.193,0.082
		c0.079,0.036,0.159,0.069,0.24,0.102c0.17,0.068,0.343,0.125,0.518,0.174c0.079,0.022,0.156,0.044,0.236,0.062
		c0.193,0.043,0.388,0.072,0.585,0.092c0.067,0.007,0.133,0.019,0.2,0.023c0.267,0.016,0.534,0.016,0.802-0.011
		c-0.006,0.148-0.013,0.302-0.018,0.444c-0.057,1.307-0.138,3.185,0.383,4.856c-0.206,0.083-0.433,0.169-0.616,0.239
		c-0.457,0.174-0.933,0.356-1.306,0.531c-0.313,0.147-0.61,0.315-0.892,0.501c-0.097,0.064-0.182,0.141-0.276,0.209
		c-0.177,0.13-0.356,0.258-0.519,0.403c-0.102,0.091-0.191,0.193-0.287,0.289c-0.138,0.138-0.278,0.273-0.403,0.421
		C10.695,31.598,10.615,31.717,10.53,31.832z M20.739,49.971c-0.043-0.006-0.087-0.009-0.131-0.009
		c-2.201,0-3.875-0.622-4.974-1.847c-1.399-1.561-1.682-3.829-1.674-5.45c0.462,0.151,0.939,0.256,1.426,0.309
		c0.039,0.004,0.078,0.004,0.117,0.007c0.202,0.018,0.405,0.034,0.609,0.035c0.249,0.002,0.498-0.01,0.747-0.035
		c0.035,0.001,0.088,0.003,0.102,0.003c1.488,0,2.946-0.339,4.203-0.968c0.162,0.216,0.339,0.421,0.527,0.618
		c0.062,0.064,0.13,0.122,0.194,0.184c0.132,0.128,0.266,0.254,0.41,0.372c0.081,0.067,0.167,0.128,0.252,0.192
		c0.137,0.103,0.276,0.204,0.421,0.298c0.094,0.061,0.19,0.118,0.286,0.174c0.146,0.086,0.295,0.168,0.448,0.245
		c0.102,0.052,0.205,0.101,0.311,0.148c0.158,0.071,0.319,0.135,0.482,0.196c0.107,0.04,0.213,0.081,0.322,0.116
		c0.174,0.057,0.352,0.104,0.532,0.15c0.104,0.027,0.206,0.057,0.312,0.079c0.211,0.045,0.426,0.078,0.643,0.107
		c0.078,0.011,0.154,0.027,0.233,0.036c0.01,0.001,0.02,0.003,0.03,0.005C25.103,50.421,20.922,49.993,20.739,49.971z
		 M48.801,43.398c-1.084,3.342-4.041,4.403-6.263,4.277c-1.961-0.103-4.239-1.139-5.178-3.691c0.015,0,0.03-0.003,0.046-0.003
		c0.019,0,0.036,0.004,0.055,0.004c0.894,0,1.754-0.141,2.554-0.395c0.142-0.044,0.273-0.111,0.411-0.163
		c0.251-0.095,0.505-0.186,0.741-0.304c0.204-0.1,0.391-0.224,0.584-0.342c0.158-0.097,0.32-0.187,0.468-0.293
		c0.055-0.039,0.118-0.067,0.171-0.107c1.491-0.746,2.595-1.974,3.083-3.396c0.012,0,0.024-0.002,0.036-0.002
		c0.335-0.002,0.665-0.023,0.99-0.056c0.115-0.011,0.229-0.028,0.343-0.043c0.225-0.03,0.446-0.068,0.664-0.113
		c0.127-0.026,0.254-0.05,0.378-0.08c0.26-0.064,0.514-0.138,0.763-0.222c0.155-0.052,0.306-0.111,0.457-0.17
		c0.182-0.072,0.363-0.146,0.537-0.227c0.062-0.029,0.128-0.05,0.189-0.08C49.663,39.994,49.317,41.807,48.801,43.398z
		 M50.688,26.899c-0.368,0.085-0.657,0.371-0.746,0.738c-0.089,0.368,0.036,0.754,0.325,0.999c1.093,0.927,1.694,2.116,1.694,3.349
		c0,1.268-0.622,2.423-1.636,3.306c-0.011,0.009-0.025,0.013-0.036,0.023c-1.264,1.085-3.124,1.68-4.949,1.662
		c-0.416-0.006-0.833-0.034-1.238-0.101c-0.279-0.045-0.559,0.027-0.779,0.199c-0.22,0.172-0.358,0.429-0.381,0.708
		c-0.093,1.168-0.734,2.209-1.705,2.963c-0.251,0.196-0.521,0.37-0.807,0.521c-0.004,0.002-0.008,0.005-0.012,0.008
		c-0.29,0.153-0.596,0.282-0.914,0.387c-0.183,0.06-0.379,0.095-0.571,0.139c-0.141,0.032-0.277,0.079-0.422,0.102
		c-0.341,0.055-0.692,0.084-1.05,0.084c-0.288,0-0.569-0.033-0.849-0.068c-0.125-0.017-0.247-0.031-0.378-0.056
		c-0.995-0.187-1.914-0.591-2.659-1.201c-0.211-0.173-0.481-0.252-0.753-0.219c-0.271,0.032-0.516,0.174-0.68,0.391
		c-0.96,1.276-2.581,2.056-4.376,2.137c-0.004,0-0.007-0.002-0.011-0.002l-0.157,0.01c-0.045,0.003-0.091,0.008-0.137,0.008
		c-0.277,0-0.551-0.017-0.82-0.05c-1.88-0.231-3.499-1.248-4.254-2.721c-0.13-0.254-0.362-0.44-0.639-0.512
		c-0.083-0.021-0.167-0.032-0.251-0.032c-0.038,0-0.075,0.012-0.112,0.017c-0.034,0.004-0.065,0.007-0.098,0.014
		c-0.122,0.026-0.241,0.067-0.346,0.138c-1.104,0.739-2.517,1.146-3.975,1.146c-0.002,0-0.115-0.005-0.118-0.005
		c-0.043,0-0.091,0.001-0.136,0.006c-0.005,0.001-0.011,0-0.016,0.001c-0.247,0.028-0.495,0.033-0.742,0.023
		c-0.04-0.001-0.079-0.004-0.119-0.006c-0.509-0.033-1.013-0.143-1.492-0.328c-0.034-0.013-0.067-0.028-0.101-0.042
		c-0.203-0.084-0.401-0.183-0.593-0.293c-0.381-0.221-0.744-0.488-1.077-0.813c-0.793-0.646-1.317-1.443-1.515-2.287
		c0.024-0.044,0.034-0.094,0.051-0.141c0.013-0.035,0.028-0.067,0.037-0.103c0.028-0.115,0.042-0.235,0.026-0.36
		c-0.272-2.162,0.869-4.236,2.843-5.161c0.334-0.157,0.761-0.318,1.169-0.474c1.211-0.461,1.818-0.693,2.054-1.274
		c0.104-0.258,0.097-0.605-0.021-0.857c-0.657-1.402-0.57-3.415-0.513-4.747c0.057-1.31,0.088-2.032-0.503-2.481
		c-0.3-0.228-0.681-0.292-1.052-0.171c-0.194,0.063-0.389,0.104-0.584,0.127c-0.081,0.009-0.162,0.002-0.243,0.005
		c-0.116,0.004-0.232,0.014-0.347,0.004c-0.072-0.006-0.143-0.027-0.214-0.039c-0.121-0.019-0.243-0.034-0.36-0.067
		c-0.092-0.026-0.179-0.07-0.269-0.106c-0.217-0.086-0.424-0.194-0.616-0.327c-0.046-0.032-0.097-0.056-0.141-0.09
		c-0.128-0.1-0.243-0.216-0.354-0.336c-0.021-0.023-0.047-0.041-0.068-0.065c-0.102-0.118-0.19-0.251-0.273-0.387
		c-0.021-0.033-0.048-0.062-0.067-0.096c-0.097-0.172-0.179-0.356-0.243-0.552c-0.072-0.226-0.141-0.511-0.208-0.785
		c-0.22-0.905-0.342-1.404-0.834-1.679c-0.243-0.135-0.567-0.168-0.834-0.083c-0.999,0.324-3.038-0.383-4.084-0.906
		c-0.058-0.029-0.117-0.051-0.178-0.068c-0.178-0.617-0.271-1.307-0.271-2.038c0-2.757,2.243-5,5-5c0.987,0,1.943,0.289,2.765,0.835
		c0.247,0.165,0.552,0.211,0.838,0.126c0.284-0.084,0.517-0.291,0.634-0.563c0.62-1.435,2.333-2.399,4.264-2.399
		c1.752,0,3.359,0.811,4.095,2.065c0.187,0.319,0.542,0.514,0.903,0.493c0.369-0.015,0.7-0.233,0.86-0.566
		c0.86-1.79,3.128-2.993,5.642-2.993c2.602,0,4.959,1.31,5.732,3.185c0.136,0.327,0.433,0.558,0.782,0.608
		c0.354,0.049,0.7-0.088,0.922-0.363c1.242-1.544,3.088-2.43,5.063-2.43c3.584,0,6.5,2.916,6.5,6.5c0,0.737-0.13,1.473-0.387,2.189
		c-0.116,0.324-0.058,0.685,0.155,0.956c0.212,0.271,0.544,0.414,0.893,0.376c0.111-0.012,0.225-0.021,0.339-0.021
		c2.206,0,4,2.243,4,5C53.961,24.393,52.584,26.46,50.688,26.899z"/>
</g>
<g>
</g>
<g>
</g>
<g>
</g>
<g>
</g>
<g>
</g>
<g>
</g>
<g>
</g>
<g>
</g>
<g>
</g>
<g>
</g>
<g>
</g>
<g>
</g>
<g>
</g>
<g>
</g>
<g>
</g>
</svg>
