<?xml version="1.0" encoding="iso-8859-1"?>
<!-- Generator: Adobe Illustrator 19.0.0, SVG Export Plug-In . SVG Version: 6.00 Build 0)  -->
<svg version="1.1" id="Layer_1" xmlns="http://www.w3.org/2000/svg" xmlns:xlink="http://www.w3.org/1999/xlink" x="0px" y="0px"
	 viewBox="0 0 512 512" style="enable-background:new 0 0 512 512;" xml:space="preserve">
<g>
	<g>
		<path d="M255.999,115.55c-92.285,0-167.364,75.08-167.364,167.364s75.08,167.364,167.364,167.364s167.364-75.08,167.364-167.364
			S348.284,115.55,255.999,115.55z M255.999,422.835c-77.153,0-139.922-62.769-139.922-139.922s62.769-139.922,139.922-139.922
			s139.922,62.769,139.922,139.922S333.152,422.835,255.999,422.835z"/>
	</g>
</g>
<g>
	<g>
		<path d="M354.91,256.258c-1.678-31.31-26.999-55.836-57.648-55.836c-17.43,0-31.84,9.974-41.158,18.768
			c-9.221-8.801-23.587-18.768-41.368-18.768c-30.649,0-55.969,24.525-57.644,55.836c-1.009,18.913,6.269,32.324,11.832,40.766
			c7.6,11.531,26.122,28.727,40.924,40.97c33.124,27.408,42.311,27.408,46.235,27.408c3.972,0,13.271,0,46.228-27.361
			c14.689-12.195,33.115-29.376,40.779-41.029C348.648,288.554,355.921,275.128,354.91,256.258z M320.158,281.933
			c-9.87,15.008-51.187,49.668-64.045,55.545c-12.972-5.963-54.453-40.65-64.276-55.554c-5.6-8.496-7.795-15.735-7.344-24.201
			c0.881-16.464,14.447-29.859,30.242-29.859c13.581,0,26.165,14.214,29.837,19.645c2.496,3.761,6.697,6.033,11.212,6.11
			c4.524,0.085,8.791-2.09,11.415-5.764c3.971-5.56,17.115-19.99,30.065-19.99c15.794,0,29.362,13.395,30.243,29.86
			C327.964,266.283,325.835,273.297,320.158,281.933z"/>
	</g>
</g>
<g>
	<g>
		<path d="M472.552,281.026c-7.578,0-13.721,6.144-13.721,13.721v113.307c0,7.577,6.143,13.721,13.721,13.721
			c7.578,0,13.721-6.144,13.721-13.721V294.748C486.273,287.171,480.128,281.026,472.552,281.026z"/>
	</g>
</g>
<g>
	<g>
		<path d="M486.008,251.128c-0.178-0.877-0.439-1.744-0.782-2.566c-0.343-0.837-0.768-1.633-1.262-2.372
			c-0.508-0.756-1.084-1.456-1.715-2.087s-1.331-1.207-2.086-1.701c-0.741-0.493-1.537-0.919-2.36-1.262
			c-0.837-0.343-1.701-0.617-2.566-0.781c-1.77-0.372-3.595-0.358-5.365,0c-0.878,0.163-1.743,0.438-2.566,0.781
			c-0.837,0.343-1.633,0.77-2.374,1.262c-0.755,0.494-1.454,1.07-2.086,1.701c-0.631,0.631-1.208,1.331-1.701,2.087
			c-0.494,0.74-0.919,1.535-1.262,2.372c-0.343,0.823-0.604,1.688-0.782,2.566c-0.178,0.878-0.274,1.784-0.274,2.676
			c0,0.891,0.096,1.797,0.274,2.689c0.178,0.864,0.439,1.729,0.782,2.566c0.343,0.823,0.768,1.619,1.262,2.36
			c0.494,0.755,1.07,1.454,1.701,2.086c0.631,0.631,1.331,1.209,2.086,1.715c0.741,0.494,1.537,0.919,2.374,1.249
			c0.823,0.343,1.688,0.617,2.566,0.782c0.878,0.178,1.784,0.274,2.676,0.274c0.906,0,1.797-0.096,2.689-0.274
			c0.878-0.165,1.729-0.439,2.566-0.782c0.823-0.329,1.619-0.755,2.36-1.249c0.755-0.506,1.454-1.084,2.086-1.715
			c0.631-0.631,1.207-1.331,1.715-2.086c0.494-0.741,0.919-1.537,1.262-2.36c0.343-0.837,0.604-1.701,0.782-2.566
			c0.178-0.892,0.261-1.799,0.261-2.689C486.269,252.912,486.186,252.005,486.008,251.128z"/>
	</g>
</g>
<g>
	<g>
		<path d="M455.396,64.728c-4.118-3.294-9.76-3.938-14.516-1.652c-4.753,2.285-7.777,7.092-7.777,12.367v139.943
			c0,7.577,6.143,13.721,13.721,13.721h51.455c7.578,0,13.721-6.144,13.721-13.721V182.5C512,136.432,491.367,93.507,455.396,64.728
			z M484.558,201.664h-24.012v-92.375c15.491,20.954,24.012,46.434,24.012,73.211V201.664z"/>
	</g>
</g>
<g>
	<g>
		<path d="M51.911,235.746c-7.578,0-13.721,6.144-13.721,13.721v158.587c0,7.577,6.143,13.721,13.721,13.721
			c7.578,0,13.721-6.144,13.721-13.721V249.468C65.633,241.891,59.49,235.746,51.911,235.746z"/>
	</g>
</g>
<g>
	<g>
		<path d="M65.357,205.848c-0.165-0.878-0.439-1.744-0.782-2.566c-0.343-0.837-0.755-1.631-1.249-2.372
			c-0.508-0.756-1.084-1.456-1.715-2.087s-1.331-1.207-2.086-1.701c-0.741-0.493-1.537-0.919-2.36-1.262
			c-0.837-0.343-1.701-0.617-2.566-0.781c-1.77-0.372-3.595-0.372-5.365,0c-0.878,0.163-1.743,0.438-2.566,0.781
			c-0.837,0.343-1.633,0.77-2.374,1.262c-0.755,0.494-1.454,1.07-2.086,1.701s-1.207,1.331-1.701,2.087
			c-0.494,0.741-0.919,1.535-1.262,2.372c-0.343,0.823-0.617,1.688-0.782,2.566c-0.178,0.878-0.274,1.784-0.274,2.676
			c0,3.609,1.468,7.149,4.02,9.7c0.631,0.633,1.331,1.209,2.086,1.717c0.741,0.494,1.537,0.921,2.374,1.264
			c0.823,0.328,1.688,0.602,2.566,0.768c0.878,0.178,1.784,0.274,2.676,0.274c3.609,0,7.149-1.468,9.701-4.022
			c0.631-0.631,1.207-1.331,1.715-2.086c0.494-0.741,0.906-1.537,1.249-2.36c0.343-0.837,0.617-1.701,0.782-2.58
			c0.178-0.88,0.274-1.785,0.274-2.676C65.631,207.632,65.535,206.725,65.357,205.848z"/>
	</g>
</g>
<g>
	<g>
		<path d="M90.103,64.186c-7.578,0-13.721,6.144-13.721,13.721v77.805H65.634v-51.461c0-7.577-6.143-13.721-13.721-13.721
			c-7.578,0-13.721,6.144-13.721,13.721v51.461H27.442V77.907c0-7.577-6.143-13.721-13.721-13.721C6.143,64.186,0,70.33,0,77.907
			v91.526c0,7.577,6.143,13.721,13.721,13.721h76.382c7.578,0,13.721-6.144,13.721-13.721V77.907
			C103.824,70.33,97.681,64.186,90.103,64.186z"/>
	</g>
</g>
<g>
</g>
<g>
</g>
<g>
</g>
<g>
</g>
<g>
</g>
<g>
</g>
<g>
</g>
<g>
</g>
<g>
</g>
<g>
</g>
<g>
</g>
<g>
</g>
<g>
</g>
<g>
</g>
<g>
</g>
</svg>
