<?xml version="1.0" encoding="iso-8859-1"?>
<!-- Generator: Adobe Illustrator 19.0.0, SVG Export Plug-In . SVG Version: 6.00 Build 0)  -->
<svg version="1.1" id="Layer_1" xmlns="http://www.w3.org/2000/svg" xmlns:xlink="http://www.w3.org/1999/xlink" x="0px" y="0px"
	 viewBox="0 0 512 512" style="enable-background:new 0 0 512 512;" xml:space="preserve">
<g>
	<g>
		<path d="M437.02,74.98C388.667,26.628,324.381,0,256,0S123.333,26.628,74.98,74.98C26.628,123.333,0,187.62,0,256
			s26.628,132.667,74.98,181.02C123.333,485.372,187.619,512,256,512s132.667-26.628,181.02-74.98
			C485.372,388.667,512,324.38,512,256S485.372,123.333,437.02,74.98z M256,478.609c-122.746,0-222.609-99.862-222.609-222.609
			S133.254,33.391,256,33.391S478.609,133.254,478.609,256S378.746,478.609,256,478.609z"/>
	</g>
</g>
<g>
	<g>
		<path d="M447.38,203.14c-5.546-34.157-26.617-66.667-59.333-91.539c-30.178-22.943-67.659-37.15-102.832-38.978
			c-47.322-2.453-179.906,14.104-224.508,118.863c-13.321,31.29-11.624,61.694,4.538,81.331c5.303,6.443,15.048,15.078,30.945,18.87
			c7.53,33.791,25.7,64.523,52.019,87.561c29.827,26.11,68.107,40.488,107.79,40.488c64.394,0,122.441-37.514,149.028-95.894
			c6.93-6.282,13.253-13.332,18.851-21.099C444.759,273.768,453.106,238.395,447.38,203.14z M256,386.346
			c-31.589,0-62.06-11.443-85.797-32.223c-18.984-16.618-32.646-38.25-39.505-62.153c1.155-0.208,2.324-0.435,3.514-0.688
			c20.459-4.338,36.483-4.576,47.626-0.708c12.024,4.173,22.449,13.577,34.52,24.465c21.902,19.757,48.387,43.651,95.203,43.651
			c7.828,0,16.229-0.669,25.267-2.136c0.918-0.149,1.833-0.313,2.746-0.48C316.605,375.255,287.24,386.346,256,386.346z
			 M396.788,283.223c-15.666,21.74-38.861,36.078-65.312,40.373c-47.279,7.678-69.364-12.252-92.753-33.349
			c-13.529-12.204-27.52-24.824-45.935-31.216c-8.809-3.058-18.716-4.585-29.896-4.585c-10.665,0-22.489,1.391-35.605,4.173
			c-16.737,3.548-29.612,1.055-36.258-7.02c-7.976-9.691-7.82-27.713,0.403-47.032c36.915-86.705,153.954-100.576,192.053-98.596
			c28.639,1.487,59.385,13.229,84.355,32.211c25.87,19.669,42.413,44.638,46.583,70.309
			C418.716,234.943,412.454,261.483,396.788,283.223z"/>
	</g>
</g>
<g>
	<g>
		<path d="M380.989,219.646c-2.289-14.099-9.932-26.461-21.518-34.812c-11.588-8.35-25.732-11.687-39.83-9.399
			c-29.102,4.726-48.934,32.247-44.208,61.349c4.256,26.213,27.006,44.905,52.748,44.905c2.837,0,5.712-0.227,8.601-0.696
			c14.098-2.29,26.46-9.932,34.809-21.518C379.941,247.887,383.279,233.742,380.989,219.646z M344.5,239.953
			c-3.135,4.351-7.777,7.22-13.072,8.081c-10.921,1.773-21.261-5.672-23.037-16.601c-1.774-10.928,5.673-21.263,16.601-23.037
			c1.09-0.177,2.178-0.264,3.26-0.264c4.178,0,8.24,1.303,11.697,3.793c4.351,3.135,7.22,7.778,8.081,13.072
			C348.888,230.29,347.635,235.601,344.5,239.953z"/>
	</g>
</g>
<g>
	<g>
		
			<rect x="130.577" y="167.998" transform="matrix(0.3365 -0.9417 0.9417 0.3365 -58.4007 286.5004)" width="87.064" height="33.391"/>
	</g>
</g>
<g>
	<g>
		
			<rect x="195.407" y="184.419" transform="matrix(0.3365 -0.9417 0.9417 0.3365 -30.8494 358.4452)" width="87.064" height="33.391"/>
	</g>
</g>
<g>
</g>
<g>
</g>
<g>
</g>
<g>
</g>
<g>
</g>
<g>
</g>
<g>
</g>
<g>
</g>
<g>
</g>
<g>
</g>
<g>
</g>
<g>
</g>
<g>
</g>
<g>
</g>
<g>
</g>
</svg>
