<?xml version="1.0" encoding="iso-8859-1"?>
<!-- Generator: Adobe Illustrator 19.0.0, SVG Export Plug-In . SVG Version: 6.00 Build 0)  -->
<svg version="1.1" id="Layer_1" xmlns="http://www.w3.org/2000/svg" xmlns:xlink="http://www.w3.org/1999/xlink" x="0px" y="0px"
	 viewBox="0 0 512.001 512.001" style="enable-background:new 0 0 512.001 512.001;" xml:space="preserve">
<g>
	<g>
		<path d="M504.604,34.822c-5.425-5.425-12.683-8.201-21.021-8.019c-13.427,0.29-29.582,8.67-44.966,19.502
			c0.191-1.371,0.3-2.707,0.328-4.009c0.159-7.376-2.312-13.831-7.146-18.665c-5.459-5.459-12.744-7.65-20.512-6.169
			c-13.54,2.581-29.22,16.26-47.934,41.817c-13.559,18.519-25.5,39.189-29.851,49.237c-11.664,26.937-30.204,58.123-39.573,73.321
			l-7.462-7.462c-7.447-7.447-17.762-11.439-28.271-10.96c-10.519,0.482-20.416,5.402-27.15,13.498L6.895,446.394
			c-9.849,11.841-9.063,28.982,1.827,39.873c5.788,5.788,13.341,8.722,20.928,8.722c6.687,0,13.399-2.28,18.947-6.895
			l269.477-224.151c8.096-6.735,13.016-16.631,13.497-27.151c0.482-10.519-3.512-20.824-10.959-28.27l-9.009-9.009
			c17.584-10.898,57.037-34.556,90.973-49.251c12.048-5.217,36.874-19.564,59.151-35.876c30.038-21.995,46.777-41.06,49.751-56.664
			C513.155,48.917,510.779,40.998,504.604,34.822z M305.028,248.262L35.551,472.414c-3.685,3.066-9.019,2.821-12.408-0.568
			c-3.389-3.389-3.634-8.723-0.569-12.408l53.103-63.84l7.349,7.349c1.992,1.992,4.601,2.987,7.211,2.987s5.22-0.995,7.211-2.987
			c3.982-3.982,3.982-10.44,0-14.423l-8.673-8.673l22.691-27.279l11.726,11.726c1.992,1.992,4.601,2.987,7.211,2.987
			c2.61,0,5.22-0.996,7.211-2.987c3.982-3.982,3.982-10.44,0-14.422l-13.049-13.049l22.002-26.451l19.821,19.821
			c1.992,1.992,4.601,2.987,7.211,2.987c2.61,0,5.22-0.995,7.211-2.987c3.982-3.982,3.982-10.44,0-14.423l-21.146-21.146
			l20.625-24.796l23.988,23.988c1.992,1.991,4.601,2.987,7.211,2.987c2.61,0,5.22-0.996,7.211-2.987
			c3.982-3.982,3.982-10.44,0-14.423l-25.313-25.313l18.561-22.314l5.212,5.212c1.992,1.992,4.601,2.987,7.211,2.987
			s5.22-0.996,7.211-2.987c3.982-3.982,3.983-10.44,0-14.422l-6.537-6.537l21.679-26.063c3.122-3.753,7.526-5.942,12.403-6.166
			c0.273-0.012,0.546-0.018,0.817-0.018c4.57,0,8.839,1.766,12.097,5.025l34.144,34.143c3.451,3.451,5.23,8.038,5.006,12.914
			C310.971,240.736,308.781,245.141,305.028,248.262z M352.219,116.623c3.252-7.512,14.271-27.102,27.591-45.292
			c21.403-29.229,32.428-33.286,35.298-33.832c0.367-0.07,0.661-0.102,0.905-0.102c0.709,0,0.98,0.272,1.366,0.658
			c0.4,0.4,1.232,1.232,1.177,3.8c-0.282,13.236-19.425,37.387-37.014,55.755l-10.011,10.011c-1.228,1.172-2.426,2.296-3.582,3.356
			c-0.108,0.099-0.214,0.2-0.318,0.304l-24.266,24.266C346.521,129.213,349.53,122.834,352.219,116.623z M491.441,53.904
			c-0.699,3.665-5.776,17.673-41.766,44.026c-22.383,16.39-45.757,29.523-55.205,33.615c-11.449,4.957-23.366,10.811-34.867,16.846
			l27.577-27.576c1.719-1.681,3.772-3.721,6.054-6.054l5.335-5.335c0.103-0.103,0.204-0.209,0.302-0.316
			c21.757-23.699,64.115-61.466,85.154-61.916c0.114-0.002,0.226-0.003,0.338-0.003c3.329,0,4.857,1.091,5.819,2.053
			C491.352,50.415,491.899,51.504,491.441,53.904z"/>
	</g>
</g>
<g>
	<g>
		<path d="M258.865,249.841l-4.547-4.546c-3.982-3.982-10.441-3.982-14.422,0c-3.982,3.983-3.982,10.44,0,14.422l4.547,4.546
			c1.992,1.992,4.601,2.987,7.211,2.987s5.22-0.996,7.211-2.987C262.848,260.28,262.848,253.823,258.865,249.841z"/>
	</g>
</g>
<g>
</g>
<g>
</g>
<g>
</g>
<g>
</g>
<g>
</g>
<g>
</g>
<g>
</g>
<g>
</g>
<g>
</g>
<g>
</g>
<g>
</g>
<g>
</g>
<g>
</g>
<g>
</g>
<g>
</g>
</svg>
